{
	"asset":{
		"generator":"Khronos glTF Blender I/O v5.0.21",
		"version":"2.0"
	},
	"extensionsUsed":[
		"KHR_materials_clearcoat",
		"KHR_materials_specular"
	],
	"scene":0,
	"scenes":[
		{
			"name":"Scene",
			"nodes":[
				0
			]
		}
	],
	"nodes":[
		{
			"mesh":0,
			"name":"Hedra001",
			"scale":[
				0.009999999776482582,
				0.009999999776482582,
				0.009999999776482582
			],
			"translation":[
				-0.026022866368293762,
				0.5583284497261047,
				0.0460093691945076
			]
		}
	],
	"animations":[
		{
			"channels":[
				{
					"sampler":0,
					"target":{
						"node":0,
						"path":"scale"
					}
				}
			],
			"name":"Hedra001Action",
			"samplers":[
				{
					"input":12,
					"interpolation":"LINEAR",
					"output":13
				}
			]
		}
	],
	"materials":[
		{
			"doubleSided":true,
			"extensions":{
				"KHR_materials_clearcoat":{
					"clearcoatRoughnessFactor":0
				}
			},
			"name":"Material #47",
			"pbrMetallicRoughness":{
				"baseColorFactor":[
					0.3803921937942505,
					0.9529412388801575,
					0,
					1
				],
				"metallicFactor":0,
				"roughnessFactor":0
			}
		},
		{
			"doubleSided":true,
			"extensions":{
				"KHR_materials_specular":{
					"specularFactor":0,
					"specularColorFactor":[
						0.8999999761581421,
						0.8999999761581421,
						0.8999999761581421
					]
				}
			},
			"name":"Material #49",
			"pbrMetallicRoughness":{
				"baseColorFactor":[
					0.5879999995231628,
					0.5879999995231628,
					0.5879999995231628,
					1
				],
				"metallicFactor":0,
				"roughnessFactor":0.858578622341156
			}
		},
		{
			"doubleSided":true,
			"extensions":{
				"KHR_materials_clearcoat":{
					"clearcoatRoughnessFactor":0
				}
			},
			"name":"Material #48",
			"pbrMetallicRoughness":{
				"baseColorFactor":[
					0.7098039388656616,
					0.13333334028720856,
					0,
					1
				],
				"metallicFactor":0,
				"roughnessFactor":0
			}
		}
	],
	"meshes":[
		{
			"name":"Mesh",
			"primitives":[
				{
					"attributes":{
						"POSITION":0,
						"NORMAL":1,
						"TEXCOORD_0":2
					},
					"indices":3,
					"material":0
				},
				{
					"attributes":{
						"POSITION":4,
						"NORMAL":5,
						"TEXCOORD_0":6
					},
					"indices":7,
					"material":1
				},
				{
					"attributes":{
						"POSITION":8,
						"NORMAL":9,
						"TEXCOORD_0":10
					},
					"indices":11,
					"material":2
				}
			]
		}
	],
	"accessors":[
		{
			"bufferView":0,
			"componentType":5126,
			"count":180,
			"max":[
				0.31964778900146484,
				0.6555337309837341,
				0.34634196758270264
			],
			"min":[
				-0.33829325437545776,
				-0.0024073028471320868,
				-0.3295266926288605
			],
			"type":"VEC3"
		},
		{
			"bufferView":1,
			"componentType":5126,
			"count":180,
			"type":"VEC3"
		},
		{
			"bufferView":2,
			"componentType":5126,
			"count":180,
			"type":"VEC2"
		},
		{
			"bufferView":3,
			"componentType":5123,
			"count":348,
			"type":"SCALAR"
		},
		{
			"bufferView":4,
			"componentType":5126,
			"count":25,
			"max":[
				0.11247275769710541,
				0.15876521170139313,
				0.009429705329239368
			],
			"min":[
				-0.011475317180156708,
				0.025577658787369728,
				-0.05083745718002319
			],
			"type":"VEC3"
		},
		{
			"bufferView":5,
			"componentType":5126,
			"count":25,
			"type":"VEC3"
		},
		{
			"bufferView":6,
			"componentType":5126,
			"count":25,
			"type":"VEC2"
		},
		{
			"bufferView":7,
			"componentType":5123,
			"count":39,
			"type":"SCALAR"
		},
		{
			"bufferView":8,
			"componentType":5126,
			"count":77,
			"max":[
				0.14851531386375427,
				0.0673072412610054,
				0.040939826518297195
			],
			"min":[
				-0.08035405725240707,
				-0.5583284497261047,
				-0.08234759420156479
			],
			"type":"VEC3"
		},
		{
			"bufferView":9,
			"componentType":5126,
			"count":77,
			"type":"VEC3"
		},
		{
			"bufferView":10,
			"componentType":5126,
			"count":77,
			"type":"VEC2"
		},
		{
			"bufferView":11,
			"componentType":5123,
			"count":129,
			"type":"SCALAR"
		},
		{
			"bufferView":12,
			"componentType":5126,
			"count":1,
			"max":[
				0.041666666666666664
			],
			"min":[
				0.041666666666666664
			],
			"type":"SCALAR"
		},
		{
			"bufferView":13,
			"componentType":5126,
			"count":1,
			"type":"VEC3"
		}
	],
	"bufferViews":[
		{
			"buffer":0,
			"byteLength":2160,
			"byteOffset":0,
			"target":34962
		},
		{
			"buffer":0,
			"byteLength":2160,
			"byteOffset":2160,
			"target":34962
		},
		{
			"buffer":0,
			"byteLength":1440,
			"byteOffset":4320,
			"target":34962
		},
		{
			"buffer":0,
			"byteLength":696,
			"byteOffset":5760,
			"target":34963
		},
		{
			"buffer":0,
			"byteLength":300,
			"byteOffset":6456,
			"target":34962
		},
		{
			"buffer":0,
			"byteLength":300,
			"byteOffset":6756,
			"target":34962
		},
		{
			"buffer":0,
			"byteLength":200,
			"byteOffset":7056,
			"target":34962
		},
		{
			"buffer":0,
			"byteLength":78,
			"byteOffset":7256,
			"target":34963
		},
		{
			"buffer":0,
			"byteLength":924,
			"byteOffset":7336,
			"target":34962
		},
		{
			"buffer":0,
			"byteLength":924,
			"byteOffset":8260,
			"target":34962
		},
		{
			"buffer":0,
			"byteLength":616,
			"byteOffset":9184,
			"target":34962
		},
		{
			"buffer":0,
			"byteLength":258,
			"byteOffset":9800,
			"target":34963
		},
		{
			"buffer":0,
			"byteLength":4,
			"byteOffset":10060
		},
		{
			"buffer":0,
			"byteLength":12,
			"byteOffset":10064
		}
	],
	"buffers":[
		{
			"byteLength":10076,
			"uri":"Untitled.bin"
		}
	]
}
